<svg width="269" height="211" viewBox="0 0 269 211" fill="none" xmlns="http://www.w3.org/2000/svg">
<mask id="path-1-outside-1" maskUnits="userSpaceOnUse" x="180.772" y="-1.17544" width="89.1304" height="93.0621" fill="black">
<rect fill="white" x="180.772" y="-1.17544" width="89.1304" height="93.0621"/>
<path d="M204.081 70.1641C204.202 70.0893 204.318 70.0116 204.438 69.9386C204.481 69.9181 204.524 69.9034 204.567 69.8828C204.648 69.8447 204.708 69.7946 204.752 69.7394C222.399 58.7707 239.075 46.4068 255.528 33.7234C255.544 33.711 255.551 33.695 255.565 33.6823C256.59 33.2445 257.298 32.6818 257.765 32.0385C260.423 32.7147 261.464 31.6022 261.476 29.6638C263.359 28.4432 266.235 26.9644 266.767 24.5752C267.479 21.3655 265.911 17.9594 264.074 15.3929C262.635 13.3739 260.511 12.3367 258.092 12.1707C255.476 11.9966 254.117 13.9526 251.991 14.6059C250.288 13.8266 248.809 14.2383 248.018 16.6091C246.825 16.7656 245.826 17.9194 245.34 19.2021C228.064 30.9552 210.958 42.9569 194.038 55.2241C194.02 55.2379 194.018 55.2569 194.001 55.2711C193.945 55.3122 193.888 55.3649 193.845 55.4358C189.683 61.9841 186.321 69.0068 182.172 75.5614C182.165 75.5793 182.157 75.5954 182.15 75.6114C182.018 75.8621 182.111 76.082 182.295 76.2135C182.421 76.3391 182.598 76.4091 182.817 76.3401C189.739 74.1452 197.144 73.2218 203.783 70.2232C203.885 70.2279 203.988 70.2213 204.081 70.1641ZM254.355 33.2525C244.885 40.5455 235.352 47.7485 225.59 54.6446C220.625 58.1536 215.575 61.541 210.476 64.845C208.897 65.8645 206.212 67.0675 205.25 68.4958C206.916 66.0138 208.272 63.4763 209.319 60.6799C209.355 60.6656 209.389 60.6607 209.426 60.639C224.977 50.748 239.087 38.803 254.46 28.6501C255.006 30.3272 255.072 31.9596 254.355 33.2525ZM219.182 45.6224C219.003 45.4823 218.827 45.337 218.652 45.1918C218.961 44.9761 219.266 44.7616 219.575 44.5459C219.774 44.7616 220.097 44.8335 220.313 44.5256C220.15 44.7547 220.312 44.8315 220.446 45.0924C220.763 45.7228 221.673 45.1246 221.362 44.4995C221.229 44.2367 221.021 43.9321 220.774 43.7087C221.063 43.5065 221.352 43.3043 221.641 43.104C221.943 43.4584 222.256 43.7974 222.6 44.1212C223.115 44.601 223.848 43.7935 223.338 43.3107C223.054 43.0491 222.788 42.7717 222.535 42.4832C222.983 42.1692 223.433 41.8557 223.883 41.5421C224.534 42.1147 225.135 42.7259 225.714 43.3695C226.191 43.8922 226.923 43.0765 226.448 42.562C225.926 41.9801 225.372 41.4326 224.793 40.9089C225.301 40.5565 225.808 40.1999 226.316 39.8475C226.652 40.0632 226.938 40.3058 227.148 40.6731C227.499 41.2829 228.415 40.69 228.065 40.0802C227.856 39.7151 227.575 39.4386 227.261 39.1886C227.373 39.1119 227.483 39.035 227.59 38.9613C227.616 38.9799 227.628 39.0037 227.66 39.0197C228.165 39.3058 228.467 39.6989 228.803 40.1586C229.217 40.7288 230.137 40.1366 229.723 39.5664C229.366 39.0714 228.981 38.6658 228.515 38.3214C228.891 38.0609 229.268 37.8008 229.645 37.5384C229.682 37.573 229.72 37.6076 229.774 37.6339C230.326 37.8905 230.853 38.181 231.248 38.664C231.691 39.2051 232.614 38.6174 232.168 38.0756C231.734 37.546 231.208 37.1784 230.62 36.8642C230.969 36.6253 231.318 36.3846 231.665 36.1435C231.72 36.1952 231.789 36.2379 231.874 36.2683C231.946 36.3232 232.013 36.3831 232.09 36.435C232.514 36.9918 233.434 36.4034 233.006 35.8459C232.881 35.6856 232.765 35.5714 232.633 35.4738C238.733 31.2834 244.882 27.1668 251.161 23.2562C252.359 24.5455 253.394 26.0815 254.073 27.6339C254.026 27.6496 253.975 27.6591 253.926 27.6938C238.536 37.855 224.41 49.8183 208.844 59.7179C208.791 59.75 208.757 59.7937 208.723 59.8333C207.079 60.0594 205.506 60.4 203.888 60.7881C201.304 61.4067 203.563 56.8808 204.076 55.2296C208.656 52.1499 213.193 49.0018 217.724 45.8406C217.966 46.0379 218.205 46.2381 218.45 46.4321C218.999 46.8645 219.737 46.0577 219.182 45.6224ZM254.171 14.4785C256.844 12.8858 259.623 12.8774 262.088 14.846C264.353 16.653 265.623 20.1201 265.894 22.9241C266.146 25.5638 263.408 27.1551 261.377 28.4297C260.658 24.2081 256.62 17.6818 253.066 15.2182C253.459 14.9611 253.842 14.6748 254.171 14.4785ZM255.978 19.4875C257.298 20.8727 258.254 22.5575 259.037 24.2933C259.536 25.4169 261.746 31.5516 258.295 31.0143C259.107 28.5354 257.346 25.3059 255.613 22.9866C253.956 20.7695 251.936 18.7652 249.733 17.1022C249.528 16.9473 249.328 16.8494 249.124 16.7646C250.454 13.6795 255.063 18.5254 255.978 19.4875ZM251.416 19.9578C252.761 21.2163 253.971 22.6088 255.077 24.0812C256.879 26.5014 259 30.4762 255.799 32.3536C256.22 30.0451 254.997 27.4549 253.934 25.53C252.426 22.8059 249.806 19.6231 246.571 18.9911C247.913 16.1485 250.279 18.9072 251.416 19.9578ZM199.693 52.474C204.794 48.7944 209.917 45.1465 215.049 41.5156C225.327 34.2435 235.681 27.0853 246.093 20.0081C247.436 20.2338 248.959 21.1536 250.361 22.4641C234.319 32.4765 219.098 43.8101 203.412 54.3582C201.377 54.5259 199.371 54.8486 197.347 55.1038C193.707 55.5654 198.69 53.1989 199.693 52.474ZM183.833 74.905C185.224 72.6435 186.545 70.343 187.835 68.0247C187.906 68.064 187.988 68.0899 188.086 68.0938C190.758 68.1802 192.174 70.3148 192.009 72.831C189.265 73.4857 186.52 74.1207 183.833 74.905ZM193.088 72.5685C193.117 69.6573 191.407 67.3212 188.382 67.0467C190.402 63.4031 192.411 59.7554 194.636 56.2298C196.637 56.2898 198.539 56.0646 200.53 55.768C204.632 55.1483 201.511 59.6426 200.371 61.6149C200.171 61.9607 200.484 62.4663 200.889 62.4091C201.71 62.2989 207.926 61.3159 207.738 61.8268C206.76 64.4625 205.06 66.8507 203.494 69.1703C200.178 70.7033 196.655 71.6974 193.088 72.5685Z"/>
</mask>
<path d="M204.081 70.1641C204.202 70.0893 204.318 70.0116 204.438 69.9386C204.481 69.9181 204.524 69.9034 204.567 69.8828C204.648 69.8447 204.708 69.7946 204.752 69.7394C222.399 58.7707 239.075 46.4068 255.528 33.7234C255.544 33.711 255.551 33.695 255.565 33.6823C256.59 33.2445 257.298 32.6818 257.765 32.0385C260.423 32.7147 261.464 31.6022 261.476 29.6638C263.359 28.4432 266.235 26.9644 266.767 24.5752C267.479 21.3655 265.911 17.9594 264.074 15.3929C262.635 13.3739 260.511 12.3367 258.092 12.1707C255.476 11.9966 254.117 13.9526 251.991 14.6059C250.288 13.8266 248.809 14.2383 248.018 16.6091C246.825 16.7656 245.826 17.9194 245.34 19.2021C228.064 30.9552 210.958 42.9569 194.038 55.2241C194.02 55.2379 194.018 55.2569 194.001 55.2711C193.945 55.3122 193.888 55.3649 193.845 55.4358C189.683 61.9841 186.321 69.0068 182.172 75.5614C182.165 75.5793 182.157 75.5954 182.15 75.6114C182.018 75.8621 182.111 76.082 182.295 76.2135C182.421 76.3391 182.598 76.4091 182.817 76.3401C189.739 74.1452 197.144 73.2218 203.783 70.2232C203.885 70.2279 203.988 70.2213 204.081 70.1641ZM254.355 33.2525C244.885 40.5455 235.352 47.7485 225.59 54.6446C220.625 58.1536 215.575 61.541 210.476 64.845C208.897 65.8645 206.212 67.0675 205.25 68.4958C206.916 66.0138 208.272 63.4763 209.319 60.6799C209.355 60.6656 209.389 60.6607 209.426 60.639C224.977 50.748 239.087 38.803 254.46 28.6501C255.006 30.3272 255.072 31.9596 254.355 33.2525ZM219.182 45.6224C219.003 45.4823 218.827 45.337 218.652 45.1918C218.961 44.9761 219.266 44.7616 219.575 44.5459C219.774 44.7616 220.097 44.8335 220.313 44.5256C220.15 44.7547 220.312 44.8315 220.446 45.0924C220.763 45.7228 221.673 45.1246 221.362 44.4995C221.229 44.2367 221.021 43.9321 220.774 43.7087C221.063 43.5065 221.352 43.3043 221.641 43.104C221.943 43.4584 222.256 43.7974 222.6 44.1212C223.115 44.601 223.848 43.7935 223.338 43.3107C223.054 43.0491 222.788 42.7717 222.535 42.4832C222.983 42.1692 223.433 41.8557 223.883 41.5421C224.534 42.1147 225.135 42.7259 225.714 43.3695C226.191 43.8922 226.923 43.0765 226.448 42.562C225.926 41.9801 225.372 41.4326 224.793 40.9089C225.301 40.5565 225.808 40.1999 226.316 39.8475C226.652 40.0632 226.938 40.3058 227.148 40.6731C227.499 41.2829 228.415 40.69 228.065 40.0802C227.856 39.7151 227.575 39.4386 227.261 39.1886C227.373 39.1119 227.483 39.035 227.59 38.9613C227.616 38.9799 227.628 39.0037 227.66 39.0197C228.165 39.3058 228.467 39.6989 228.803 40.1586C229.217 40.7288 230.137 40.1366 229.723 39.5664C229.366 39.0714 228.981 38.6658 228.515 38.3214C228.891 38.0609 229.268 37.8008 229.645 37.5384C229.682 37.573 229.72 37.6076 229.774 37.6339C230.326 37.8905 230.853 38.181 231.248 38.664C231.691 39.2051 232.614 38.6174 232.168 38.0756C231.734 37.546 231.208 37.1784 230.62 36.8642C230.969 36.6253 231.318 36.3846 231.665 36.1435C231.72 36.1952 231.789 36.2379 231.874 36.2683C231.946 36.3232 232.013 36.3831 232.09 36.435C232.514 36.9918 233.434 36.4034 233.006 35.8459C232.881 35.6856 232.765 35.5714 232.633 35.4738C238.733 31.2834 244.882 27.1668 251.161 23.2562C252.359 24.5455 253.394 26.0815 254.073 27.6339C254.026 27.6496 253.975 27.6591 253.926 27.6938C238.536 37.855 224.41 49.8183 208.844 59.7179C208.791 59.75 208.757 59.7937 208.723 59.8333C207.079 60.0594 205.506 60.4 203.888 60.7881C201.304 61.4067 203.563 56.8808 204.076 55.2296C208.656 52.1499 213.193 49.0018 217.724 45.8406C217.966 46.0379 218.205 46.2381 218.45 46.4321C218.999 46.8645 219.737 46.0577 219.182 45.6224ZM254.171 14.4785C256.844 12.8858 259.623 12.8774 262.088 14.846C264.353 16.653 265.623 20.1201 265.894 22.9241C266.146 25.5638 263.408 27.1551 261.377 28.4297C260.658 24.2081 256.62 17.6818 253.066 15.2182C253.459 14.9611 253.842 14.6748 254.171 14.4785ZM255.978 19.4875C257.298 20.8727 258.254 22.5575 259.037 24.2933C259.536 25.4169 261.746 31.5516 258.295 31.0143C259.107 28.5354 257.346 25.3059 255.613 22.9866C253.956 20.7695 251.936 18.7652 249.733 17.1022C249.528 16.9473 249.328 16.8494 249.124 16.7646C250.454 13.6795 255.063 18.5254 255.978 19.4875ZM251.416 19.9578C252.761 21.2163 253.971 22.6088 255.077 24.0812C256.879 26.5014 259 30.4762 255.799 32.3536C256.22 30.0451 254.997 27.4549 253.934 25.53C252.426 22.8059 249.806 19.6231 246.571 18.9911C247.913 16.1485 250.279 18.9072 251.416 19.9578ZM199.693 52.474C204.794 48.7944 209.917 45.1465 215.049 41.5156C225.327 34.2435 235.681 27.0853 246.093 20.0081C247.436 20.2338 248.959 21.1536 250.361 22.4641C234.319 32.4765 219.098 43.8101 203.412 54.3582C201.377 54.5259 199.371 54.8486 197.347 55.1038C193.707 55.5654 198.69 53.1989 199.693 52.474ZM183.833 74.905C185.224 72.6435 186.545 70.343 187.835 68.0247C187.906 68.064 187.988 68.0899 188.086 68.0938C190.758 68.1802 192.174 70.3148 192.009 72.831C189.265 73.4857 186.52 74.1207 183.833 74.905ZM193.088 72.5685C193.117 69.6573 191.407 67.3212 188.382 67.0467C190.402 63.4031 192.411 59.7554 194.636 56.2298C196.637 56.2898 198.539 56.0646 200.53 55.768C204.632 55.1483 201.511 59.6426 200.371 61.6149C200.171 61.9607 200.484 62.4663 200.889 62.4091C201.71 62.2989 207.926 61.3159 207.738 61.8268C206.76 64.4625 205.06 66.8507 203.494 69.1703C200.178 70.7033 196.655 71.6974 193.088 72.5685Z" fill="#EC4133"/>
<path d="M204.081 70.1641C204.202 70.0893 204.318 70.0116 204.438 69.9386C204.481 69.9181 204.524 69.9034 204.567 69.8828C204.648 69.8447 204.708 69.7946 204.752 69.7394C222.399 58.7707 239.075 46.4068 255.528 33.7234C255.544 33.711 255.551 33.695 255.565 33.6823C256.59 33.2445 257.298 32.6818 257.765 32.0385C260.423 32.7147 261.464 31.6022 261.476 29.6638C263.359 28.4432 266.235 26.9644 266.767 24.5752C267.479 21.3655 265.911 17.9594 264.074 15.3929C262.635 13.3739 260.511 12.3367 258.092 12.1707C255.476 11.9966 254.117 13.9526 251.991 14.6059C250.288 13.8266 248.809 14.2383 248.018 16.6091C246.825 16.7656 245.826 17.9194 245.34 19.2021C228.064 30.9552 210.958 42.9569 194.038 55.2241C194.02 55.2379 194.018 55.2569 194.001 55.2711C193.945 55.3122 193.888 55.3649 193.845 55.4358C189.683 61.9841 186.321 69.0068 182.172 75.5614C182.165 75.5793 182.157 75.5954 182.15 75.6114C182.018 75.8621 182.111 76.082 182.295 76.2135C182.421 76.3391 182.598 76.4091 182.817 76.3401C189.739 74.1452 197.144 73.2218 203.783 70.2232C203.885 70.2279 203.988 70.2213 204.081 70.1641ZM254.355 33.2525C244.885 40.5455 235.352 47.7485 225.59 54.6446C220.625 58.1536 215.575 61.541 210.476 64.845C208.897 65.8645 206.212 67.0675 205.25 68.4958C206.916 66.0138 208.272 63.4763 209.319 60.6799C209.355 60.6656 209.389 60.6607 209.426 60.639C224.977 50.748 239.087 38.803 254.46 28.6501C255.006 30.3272 255.072 31.9596 254.355 33.2525ZM219.182 45.6224C219.003 45.4823 218.827 45.337 218.652 45.1918C218.961 44.9761 219.266 44.7616 219.575 44.5459C219.774 44.7616 220.097 44.8335 220.313 44.5256C220.15 44.7547 220.312 44.8315 220.446 45.0924C220.763 45.7228 221.673 45.1246 221.362 44.4995C221.229 44.2367 221.021 43.9321 220.774 43.7087C221.063 43.5065 221.352 43.3043 221.641 43.104C221.943 43.4584 222.256 43.7974 222.6 44.1212C223.115 44.601 223.848 43.7935 223.338 43.3107C223.054 43.0491 222.788 42.7717 222.535 42.4832C222.983 42.1692 223.433 41.8557 223.883 41.5421C224.534 42.1147 225.135 42.7259 225.714 43.3695C226.191 43.8922 226.923 43.0765 226.448 42.562C225.926 41.9801 225.372 41.4326 224.793 40.9089C225.301 40.5565 225.808 40.1999 226.316 39.8475C226.652 40.0632 226.938 40.3058 227.148 40.6731C227.499 41.2829 228.415 40.69 228.065 40.0802C227.856 39.7151 227.575 39.4386 227.261 39.1886C227.373 39.1119 227.483 39.035 227.59 38.9613C227.616 38.9799 227.628 39.0037 227.66 39.0197C228.165 39.3058 228.467 39.6989 228.803 40.1586C229.217 40.7288 230.137 40.1366 229.723 39.5664C229.366 39.0714 228.981 38.6658 228.515 38.3214C228.891 38.0609 229.268 37.8008 229.645 37.5384C229.682 37.573 229.72 37.6076 229.774 37.6339C230.326 37.8905 230.853 38.181 231.248 38.664C231.691 39.2051 232.614 38.6174 232.168 38.0756C231.734 37.546 231.208 37.1784 230.62 36.8642C230.969 36.6253 231.318 36.3846 231.665 36.1435C231.72 36.1952 231.789 36.2379 231.874 36.2683C231.946 36.3232 232.013 36.3831 232.09 36.435C232.514 36.9918 233.434 36.4034 233.006 35.8459C232.881 35.6856 232.765 35.5714 232.633 35.4738C238.733 31.2834 244.882 27.1668 251.161 23.2562C252.359 24.5455 253.394 26.0815 254.073 27.6339C254.026 27.6496 253.975 27.6591 253.926 27.6938C238.536 37.855 224.41 49.8183 208.844 59.7179C208.791 59.75 208.757 59.7937 208.723 59.8333C207.079 60.0594 205.506 60.4 203.888 60.7881C201.304 61.4067 203.563 56.8808 204.076 55.2296C208.656 52.1499 213.193 49.0018 217.724 45.8406C217.966 46.0379 218.205 46.2381 218.45 46.4321C218.999 46.8645 219.737 46.0577 219.182 45.6224ZM254.171 14.4785C256.844 12.8858 259.623 12.8774 262.088 14.846C264.353 16.653 265.623 20.1201 265.894 22.9241C266.146 25.5638 263.408 27.1551 261.377 28.4297C260.658 24.2081 256.62 17.6818 253.066 15.2182C253.459 14.9611 253.842 14.6748 254.171 14.4785ZM255.978 19.4875C257.298 20.8727 258.254 22.5575 259.037 24.2933C259.536 25.4169 261.746 31.5516 258.295 31.0143C259.107 28.5354 257.346 25.3059 255.613 22.9866C253.956 20.7695 251.936 18.7652 249.733 17.1022C249.528 16.9473 249.328 16.8494 249.124 16.7646C250.454 13.6795 255.063 18.5254 255.978 19.4875ZM251.416 19.9578C252.761 21.2163 253.971 22.6088 255.077 24.0812C256.879 26.5014 259 30.4762 255.799 32.3536C256.22 30.0451 254.997 27.4549 253.934 25.53C252.426 22.8059 249.806 19.6231 246.571 18.9911C247.913 16.1485 250.279 18.9072 251.416 19.9578ZM199.693 52.474C204.794 48.7944 209.917 45.1465 215.049 41.5156C225.327 34.2435 235.681 27.0853 246.093 20.0081C247.436 20.2338 248.959 21.1536 250.361 22.4641C234.319 32.4765 219.098 43.8101 203.412 54.3582C201.377 54.5259 199.371 54.8486 197.347 55.1038C193.707 55.5654 198.69 53.1989 199.693 52.474ZM183.833 74.905C185.224 72.6435 186.545 70.343 187.835 68.0247C187.906 68.064 187.988 68.0899 188.086 68.0938C190.758 68.1802 192.174 70.3148 192.009 72.831C189.265 73.4857 186.52 74.1207 183.833 74.905ZM193.088 72.5685C193.117 69.6573 191.407 67.3212 188.382 67.0467C190.402 63.4031 192.411 59.7554 194.636 56.2298C196.637 56.2898 198.539 56.0646 200.53 55.768C204.632 55.1483 201.511 59.6426 200.371 61.6149C200.171 61.9607 200.484 62.4663 200.889 62.4091C201.71 62.2989 207.926 61.3159 207.738 61.8268C206.76 64.4625 205.06 66.8507 203.494 69.1703C200.178 70.7033 196.655 71.6974 193.088 72.5685Z" stroke="#EC4133" stroke-width="0.6" mask="url(#path-1-outside-1)"/>
<g clip-path="url(#clip0)">
<path d="M24.319 144.276C31.7415 151.376 40.5899 156.812 50.1813 161.244C59.6714 165.616 70.0043 168.783 80.8063 170.338C91.0344 171.803 102.324 171.168 112.149 165.16C121.355 159.557 126.078 150.505 126.091 141.041C126.1 131.272 122.235 122.329 118.868 113.712C115.066 104.084 111.091 94.4248 109.099 84.0713C108.111 78.7771 107.443 73.0779 108.157 67.4642C108.885 61.8689 112.332 55.301 119.049 54.3633C124.013 53.6736 128.823 55.6083 132.728 57.7129C136.622 59.8013 139.996 62.6084 143.169 65.5598C149.417 71.3218 154.954 77.9618 162.502 82.3533C165.985 84.3694 169.917 85.9928 174.202 86.4441C178.145 86.8779 184.221 85.2816 184.276 80.3612C184.328 78.4523 183.435 76.786 182.513 75.2486C182.202 74.7178 181.168 75.2619 181.396 75.8459C182.045 77.6817 182.885 80.0481 181.628 82.0837C179.98 84.7232 175.856 84.4166 173.516 83.9947C169.247 83.2233 165.409 81.4314 162.032 79.1363C155.072 74.4659 149.775 68.0401 143.622 62.5439C137.793 57.34 130.308 52.0032 121.318 52.1401C116.529 52.2178 112.162 54.4953 109.328 58.5802C106.221 63.0086 105.717 68.1912 105.792 72.9965C105.954 83.314 108.739 93.035 112.16 102.334C115.539 111.485 119.812 120.321 122.426 129.8C124.748 138.125 125.589 148.123 119.399 156.451C112.312 165.994 99.7028 169.479 88.9811 169.204C78.186 168.952 67.7564 166.035 58.1171 162.613C48.1741 159.099 39.0763 154.168 30.8521 148.118C28.8544 146.636 26.8773 145.138 24.9876 143.552C24.5516 143.188 23.9374 143.902 24.319 144.276Z" fill="#EC4133"/>
</g>
<defs>
<clipPath id="clip0">
<rect width="185.503" height="103.094" fill="white" transform="translate(211.456 104.252) rotate(145.085)"/>
</clipPath>
</defs>
</svg>
